<svg xmlns="http://www.w3.org/2000/svg" viewBox="0 0 640 360" role="img" aria-labelledby="t d">
<title id="t">Publication methods concept map</title><desc id="d">A conceptual map of the article topics and methods: polymer photonic crystal pressure sensing, PWE, FDTD, transmission, quality factor and sensitivity.</desc>
<defs>
 <linearGradient id="bg" x1="0" y1="0" x2="1" y2="1"><stop stop-color="#06162f"/><stop offset="1" stop-color="#0a3765"/></linearGradient>
 <linearGradient id="cyan" x1="0" y1="0" x2="1" y2="1"><stop stop-color="#18d8ff"/><stop offset="1" stop-color="#5a7cff"/></linearGradient>
 <linearGradient id="warm" x1="0" y1="0" x2="1" y2="0"><stop stop-color="#1ddaff"/><stop offset=".7" stop-color="#7e8bff"/><stop offset="1" stop-color="#ff9d42"/></linearGradient>
 <filter id="glow"><feGaussianBlur stdDeviation="6" result="b"/><feMerge><feMergeNode in="b"/><feMergeNode in="SourceGraphic"/></feMerge></filter>
</defs>
<rect width="640" height="360" rx="26" fill="url(#bg)"/>
<g opacity=".18" stroke="#72c9ff" stroke-width="1"><path d="M0 72H640M0 144H640M0 216H640M0 288H640"/><path d="M80 0V360M160 0V360M240 0V360M320 0V360M400 0V360M480 0V360M560 0V360"/></g>
<g font-family="Inter,Segoe UI,sans-serif" font-size="12" text-anchor="middle"><circle cx="320" cy="180" r="62" fill="#0b3b69" stroke="#2dd4ff" stroke-width="3"/><text x="320" y="173" fill="#effaff" font-weight="700">Photonic-crystal</text><text x="320" y="191" fill="#b9e5ff">pressure sensing</text><circle cx="135" cy="92" r="44" fill="#08284c" stroke="#278cc9" stroke-width="2"/><text x="135" y="96" fill="#cfeeff">Polymer</text><path d="M320 180L135 92" stroke="#287ab4" stroke-width="2" stroke-dasharray="5 7"/><circle cx="500" cy="90" r="44" fill="#08284c" stroke="#278cc9" stroke-width="2"/><text x="500" y="94" fill="#cfeeff">PWE</text><path d="M320 180L500 90" stroke="#287ab4" stroke-width="2" stroke-dasharray="5 7"/><circle cx="125" cy="260" r="44" fill="#08284c" stroke="#278cc9" stroke-width="2"/><text x="125" y="264" fill="#cfeeff">FDTD</text><path d="M320 180L125 260" stroke="#287ab4" stroke-width="2" stroke-dasharray="5 7"/><circle cx="510" cy="262" r="44" fill="#08284c" stroke="#278cc9" stroke-width="2"/><text x="510" y="266" fill="#cfeeff">Transmission</text><path d="M320 180L510 262" stroke="#287ab4" stroke-width="2" stroke-dasharray="5 7"/><circle cx="320" cy="70" r="44" fill="#08284c" stroke="#278cc9" stroke-width="2"/><text x="320" y="74" fill="#cfeeff">Quality factor</text><path d="M320 180L320 70" stroke="#287ab4" stroke-width="2" stroke-dasharray="5 7"/><circle cx="320" cy="296" r="44" fill="#08284c" stroke="#278cc9" stroke-width="2"/><text x="320" y="300" fill="#cfeeff">Sensitivity</text><path d="M320 180L320 296" stroke="#287ab4" stroke-width="2" stroke-dasharray="5 7"/></g><g font-family="Inter,Segoe UI,sans-serif"><text x="28" y="34" fill="#e8f7ff" font-size="18" font-weight="700">Research topics &amp; methods</text><text x="28" y="334" fill="#88b9d8" font-size="11">Concept schematic — not simulation or measurement data</text></g></svg>