<svg xmlns="http://www.w3.org/2000/svg" viewBox="0 0 640 360" role="img" aria-labelledby="t d">
<title id="t">Lab-on-chip biosensing concept</title><desc id="d">A conceptual microfluidic channel coupled to a photonic ring resonator for on-chip spectroscopy or biosensing.</desc>
<defs>
 <linearGradient id="bg" x1="0" y1="0" x2="1" y2="1"><stop stop-color="#06162f"/><stop offset="1" stop-color="#0a3765"/></linearGradient>
 <linearGradient id="cyan" x1="0" y1="0" x2="1" y2="1"><stop stop-color="#18d8ff"/><stop offset="1" stop-color="#5a7cff"/></linearGradient>
 <linearGradient id="warm" x1="0" y1="0" x2="1" y2="0"><stop stop-color="#1ddaff"/><stop offset=".7" stop-color="#7e8bff"/><stop offset="1" stop-color="#ff9d42"/></linearGradient>
 <filter id="glow"><feGaussianBlur stdDeviation="6" result="b"/><feMerge><feMergeNode in="b"/><feMergeNode in="SourceGraphic"/></feMerge></filter>
</defs>
<rect width="640" height="360" rx="26" fill="url(#bg)"/>
<g opacity=".18" stroke="#72c9ff" stroke-width="1"><path d="M0 72H640M0 144H640M0 216H640M0 288H640"/><path d="M80 0V360M160 0V360M240 0V360M320 0V360M400 0V360M480 0V360M560 0V360"/></g>
<rect x="105" y="92" width="430" height="170" rx="48" fill="#0b2f55" stroke="#2c9dda" stroke-width="2"/><path d="M105 177H535" stroke="#22d4ff" stroke-width="12" filter="url(#glow)"/><circle cx="330" cy="177" r="58" fill="none" stroke="url(#warm)" stroke-width="11"/><path d="M150 112C205 145 245 102 298 132S398 153 488 116" fill="none" stroke="#6fe6ff" stroke-width="4" opacity=".65"/><g fill="#88efff"><circle cx="205" cy="130" r="8"/><circle cx="270" cy="118" r="6"/><circle cx="408" cy="133" r="9"/><circle cx="463" cy="119" r="6"/></g><text x="128" y="286" fill="#9bccec" font-family="Inter,Segoe UI,sans-serif" font-size="12">microfluidic channel + resonant optical readout</text><g font-family="Inter,Segoe UI,sans-serif"><text x="28" y="34" fill="#e8f7ff" font-size="18" font-weight="700">On-chip spectroscopy &amp; photonic biosensing</text><text x="28" y="334" fill="#88b9d8" font-size="11">Concept schematic — not simulation or measurement data</text></g></svg>