<svg xmlns="http://www.w3.org/2000/svg" viewBox="0 0 640 360" role="img" aria-labelledby="t d">
<title id="t">Inverse design concept</title><desc id="d">A conceptual design-region grid linked to numerical optimization and a target photonic response.</desc>
<defs>
 <linearGradient id="bg" x1="0" y1="0" x2="1" y2="1"><stop stop-color="#06162f"/><stop offset="1" stop-color="#0a3765"/></linearGradient>
 <linearGradient id="cyan" x1="0" y1="0" x2="1" y2="1"><stop stop-color="#18d8ff"/><stop offset="1" stop-color="#5a7cff"/></linearGradient>
 <linearGradient id="warm" x1="0" y1="0" x2="1" y2="0"><stop stop-color="#1ddaff"/><stop offset=".7" stop-color="#7e8bff"/><stop offset="1" stop-color="#ff9d42"/></linearGradient>
 <filter id="glow"><feGaussianBlur stdDeviation="6" result="b"/><feMerge><feMergeNode in="b"/><feMergeNode in="SourceGraphic"/></feMerge></filter>
</defs>
<rect width="640" height="360" rx="26" fill="url(#bg)"/>
<g opacity=".18" stroke="#72c9ff" stroke-width="1"><path d="M0 72H640M0 144H640M0 216H640M0 288H640"/><path d="M80 0V360M160 0V360M240 0V360M320 0V360M400 0V360M480 0V360M560 0V360"/></g>
<g transform="translate(80 92)"><rect x="0" y="0" width="18" height="18" rx="4" fill="#16cfff" opacity="0.95"/><rect x="22" y="0" width="18" height="18" rx="4" fill="#315789" opacity="0.62"/><rect x="44" y="0" width="18" height="18" rx="4" fill="#315789" opacity="0.62"/><rect x="66" y="0" width="18" height="18" rx="4" fill="#16cfff" opacity="0.95"/><rect x="88" y="0" width="18" height="18" rx="4" fill="#315789" opacity="0.62"/><rect x="110" y="0" width="18" height="18" rx="4" fill="#315789" opacity="0.62"/><rect x="132" y="0" width="18" height="18" rx="4" fill="#16cfff" opacity="0.95"/><rect x="154" y="0" width="18" height="18" rx="4" fill="#315789" opacity="0.62"/><rect x="0" y="22" width="18" height="18" rx="4" fill="#315789" opacity="0.62"/><rect x="22" y="22" width="18" height="18" rx="4" fill="#315789" opacity="0.62"/><rect x="44" y="22" width="18" height="18" rx="4" fill="#16cfff" opacity="0.95"/><rect x="66" y="22" width="18" height="18" rx="4" fill="#315789" opacity="0.62"/><rect x="88" y="22" width="18" height="18" rx="4" fill="#315789" opacity="0.62"/><rect x="110" y="22" width="18" height="18" rx="4" fill="#16cfff" opacity="0.95"/><rect x="132" y="22" width="18" height="18" rx="4" fill="#315789" opacity="0.62"/><rect x="154" y="22" width="18" height="18" rx="4" fill="#315789" opacity="0.62"/><rect x="0" y="44" width="18" height="18" rx="4" fill="#315789" opacity="0.62"/><rect x="22" y="44" width="18" height="18" rx="4" fill="#16cfff" opacity="0.95"/><rect x="44" y="44" width="18" height="18" rx="4" fill="#315789" opacity="0.62"/><rect x="66" y="44" width="18" height="18" rx="4" fill="#315789" opacity="0.62"/><rect x="88" y="44" width="18" height="18" rx="4" fill="#16cfff" opacity="0.95"/><rect x="110" y="44" width="18" height="18" rx="4" fill="#315789" opacity="0.62"/><rect x="132" y="44" width="18" height="18" rx="4" fill="#315789" opacity="0.62"/><rect x="154" y="44" width="18" height="18" rx="4" fill="#16cfff" opacity="0.95"/><rect x="0" y="66" width="18" height="18" rx="4" fill="#16cfff" opacity="0.95"/><rect x="22" y="66" width="18" height="18" rx="4" fill="#315789" opacity="0.62"/><rect x="44" y="66" width="18" height="18" rx="4" fill="#315789" opacity="0.62"/><rect x="66" y="66" width="18" height="18" rx="4" fill="#16cfff" opacity="0.95"/><rect x="88" y="66" width="18" height="18" rx="4" fill="#315789" opacity="0.62"/><rect x="110" y="66" width="18" height="18" rx="4" fill="#315789" opacity="0.62"/><rect x="132" y="66" width="18" height="18" rx="4" fill="#16cfff" opacity="0.95"/><rect x="154" y="66" width="18" height="18" rx="4" fill="#315789" opacity="0.62"/><rect x="0" y="88" width="18" height="18" rx="4" fill="#315789" opacity="0.62"/><rect x="22" y="88" width="18" height="18" rx="4" fill="#315789" opacity="0.62"/><rect x="44" y="88" width="18" height="18" rx="4" fill="#16cfff" opacity="0.95"/><rect x="66" y="88" width="18" height="18" rx="4" fill="#315789" opacity="0.62"/><rect x="88" y="88" width="18" height="18" rx="4" fill="#315789" opacity="0.62"/><rect x="110" y="88" width="18" height="18" rx="4" fill="#16cfff" opacity="0.95"/><rect x="132" y="88" width="18" height="18" rx="4" fill="#315789" opacity="0.62"/><rect x="154" y="88" width="18" height="18" rx="4" fill="#315789" opacity="0.62"/><rect x="0" y="110" width="18" height="18" rx="4" fill="#315789" opacity="0.62"/><rect x="22" y="110" width="18" height="18" rx="4" fill="#16cfff" opacity="0.95"/><rect x="44" y="110" width="18" height="18" rx="4" fill="#315789" opacity="0.62"/><rect x="66" y="110" width="18" height="18" rx="4" fill="#315789" opacity="0.62"/><rect x="88" y="110" width="18" height="18" rx="4" fill="#16cfff" opacity="0.95"/><rect x="110" y="110" width="18" height="18" rx="4" fill="#315789" opacity="0.62"/><rect x="132" y="110" width="18" height="18" rx="4" fill="#315789" opacity="0.62"/><rect x="154" y="110" width="18" height="18" rx="4" fill="#16cfff" opacity="0.95"/><rect x="0" y="132" width="18" height="18" rx="4" fill="#16cfff" opacity="0.95"/><rect x="22" y="132" width="18" height="18" rx="4" fill="#315789" opacity="0.62"/><rect x="44" y="132" width="18" height="18" rx="4" fill="#315789" opacity="0.62"/><rect x="66" y="132" width="18" height="18" rx="4" fill="#16cfff" opacity="0.95"/><rect x="88" y="132" width="18" height="18" rx="4" fill="#315789" opacity="0.62"/><rect x="110" y="132" width="18" height="18" rx="4" fill="#315789" opacity="0.62"/><rect x="132" y="132" width="18" height="18" rx="4" fill="#16cfff" opacity="0.95"/><rect x="154" y="132" width="18" height="18" rx="4" fill="#315789" opacity="0.62"/></g><path d="M280 172H382" stroke="#85dfff" stroke-width="4"/><path d="M368 160l18 12-18 12" fill="none" stroke="#85dfff" stroke-width="4"/><circle cx="438" cy="172" r="53" fill="none" stroke="url(#warm)" stroke-width="9"/><path d="M498 100C538 128 552 177 527 223" fill="none" stroke="#ffae54" stroke-width="4" stroke-dasharray="7 7"/><path d="M518 213l11 14 7-16" fill="none" stroke="#ffae54" stroke-width="3"/><text x="300" y="146" fill="#cdeeff" font-family="Inter,Segoe UI,sans-serif" font-size="12">optimizer</text><text x="410" y="246" fill="#9bccec" font-family="Inter,Segoe UI,sans-serif" font-size="12">target response</text><g font-family="Inter,Segoe UI,sans-serif"><text x="28" y="34" fill="#e8f7ff" font-size="18" font-weight="700">Inverse &amp; ML-assisted photonic design</text><text x="28" y="334" fill="#88b9d8" font-size="11">Concept schematic — not simulation or measurement data</text></g></svg>